<?xml version="1.0" encoding="UTF-8" standalone="no"?>
<svg
   width="256"
   height="256"
   viewBox="0 0 1024 1024"
   version="1.1"
   xmlns="http://www.w3.org/2000/svg">
  <g
     fill="none"
     stroke-linecap="round"
     stroke-linejoin="round"
     transform="matrix(1.2133531,0,0,1.2133531,5.4491316,-107.07018)">
    <!-- Hub -->
    <path
       d="m 259.86361,508.73158 h -77.9271"
       stroke="#ffffff"
       stroke-width="49.1262"
       stroke-opacity="1"
       stroke-linecap="square" />
    <!-- Bus lines -->
    <path
       d="M 740.27153,340.70241 H 276.71654 v 44.5398 124.71151"
       stroke="#ffffff"
       stroke-width="22.5123"
       stroke-opacity="0.95"
       stroke-linecap="square" />
    <path
       d="m 740.27153,392.66551 h -358.2016 v 34.14722 l -105.35339,83.14099"
       stroke="#ffffff"
       stroke-width="22.5123"
       stroke-opacity="0.95"
       stroke-linecap="square" />
    <path
       d="M 740.27153,440.91701 H 508.49399 v 27.4662 l -231.77745,41.57051"
       stroke="#ffffff"
       stroke-width="22.5123"
       stroke-opacity="0.95"
       stroke-linecap="square" />
    <path
       d="M 740.27153,578.99043 H 508.49399 v -34.1472 L 276.71654,509.95372"
       stroke="#ffffff"
       stroke-width="22.5123"
       stroke-opacity="0.95"
       stroke-linecap="square" />
    <path
       d="M 740.27153,627.2419 H 382.06993 V 603.48734 L 276.71654,509.95372"
       stroke="#ffffff"
       stroke-width="22.5123"
       stroke-opacity="0.95"
       stroke-linecap="square" />
    <path
       d="M 740.27153,679.20504 H 276.71654 V 634.6652 509.95372"
       stroke="#ffffff"
       stroke-width="22.5123"
       stroke-opacity="0.95"
       stroke-linecap="square" />
    <path
       d="M 740.27153,509.95372 H 276.71654"
       stroke="#ffffff"
       stroke-width="22.5123"
       stroke-opacity="0.95"
       stroke-linecap="square" />
    <!-- C letterform -->
    <path
       d="M 564.91626,798.8 H 265.4 c -9.6,0 -19.93333,-1.13333 -31,-3.4 -11.06667,-2.26667 -22,-5.8 -32.8,-10.6 -10.8,-4.8 -21.13333,-11 -31,-18.6 -9.86667,-7.6 -18.6,-16.8 -26.2,-27.6 -7.6,-10.8 -13.66667,-23.33333 -18.2,-37.6 -4.53333,-14.26667 -6.8,-30.33333 -6.8,-48.2 V 371.2 c 0,-9.6 1.13333,-19.93333 3.4,-31 2.26667,-11.06667 5.8,-22 10.6,-32.8 4.8,-10.8 11.06667,-21.13333 18.8,-31 7.73333,-9.86667 17,-18.6 27.8,-26.2 10.8,-7.6 23.26667,-13.66667 37.4,-18.2 14.13333,-4.53333 30.13333,-6.8 48,-6.8 h 299.51626 v 104 H 265.4 c -13.6,0 -24,3.6 -31.2,10.8 -7.2,7.2 -10.8,17.86667 -10.8,32 v 280.8 c 0,13.33333 3.66667,23.66667 11,31 7.33333,7.33333 17.66667,11 31,11 h 299.51626 z"
       fill="#ffffff"
       fill-opacity="1"
       stroke="none"
       transform="matrix(1.1651368,0,0,1.1541879,-43.103111,-78.955555)" />
  </g>
</svg>
